HIERARCHY
ROOT Pelvis
{
	OFFSET -0.217368 -24.078917 2.858379
	CHANNELS 6 Xposition Yposition Zposition Zrotation Yrotation Xrotation 
	JOINT Left_hip
	{
		OFFSET 5.858135 -8.228005 -1.766408
		CHANNELS 3 Zrotation Yrotation Xrotation
		JOINT Left_knee
		{
			OFFSET 4.345143 -38.646942 0.803700
			CHANNELS 3 Zrotation Yrotation Xrotation
			JOINT Left_ankle
			{
				OFFSET -1.479033 -42.687447 -3.742800
				CHANNELS 3 Zrotation Yrotation Xrotation
				JOINT Left_foot
				{
					OFFSET 4.105436 -6.028605 12.204244
					CHANNELS 3 Zrotation Yrotation Xrotation
					End Site
					{
						OFFSET 0.000000 0.000000 0.000000
					}
				}
			}
		}
	}
	JOINT Right_hip
	{
		OFFSET -6.030973 -9.051328 -1.354253
		CHANNELS 3 Zrotation Yrotation Xrotation
		JOINT Right_knee
		{
			OFFSET -4.325663 -38.368790 -0.484304
			CHANNELS 3 Zrotation Yrotation Xrotation
			JOINT Right_ankle
			{
				OFFSET 1.905555 -42.004566 -3.456167
				CHANNELS 3 Zrotation Yrotation Xrotation
				JOINT Right_foot
				{
					OFFSET -3.483987 -6.210554 13.032330
					CHANNELS 3 Zrotation Yrotation Xrotation
					End Site
					{
						OFFSET 0.000000 0.000000 0.000000
					}
				}
			}
		}
	}
	JOINT Spine1
	{
		OFFSET 0.443945 12.440353 -3.838522
		CHANNELS 3 Zrotation Yrotation Xrotation
		JOINT Spine2
		{
			OFFSET 0.448844 13.795640 2.682033
			CHANNELS 3 Zrotation Yrotation Xrotation
			JOINT Spine3
			{
				OFFSET -0.226460 5.603239 0.285504
				CHANNELS 3 Zrotation Yrotation Xrotation
				JOINT Neck
				{
					OFFSET -1.339018 21.163553 -3.346758
					CHANNELS 3 Zrotation Yrotation Xrotation
					JOINT Head
					{
						OFFSET 1.011321 8.893734 5.040987
						CHANNELS 3 Zrotation Yrotation Xrotation
						End Site
						{
							OFFSET 0.000000 0.000000 0.000000
						}
					}
				}
				JOINT Left_collar
				{
					OFFSET 7.170247 11.399971 -1.889817
					CHANNELS 3 Zrotation Yrotation Xrotation
					JOINT Left_shoulder
					{
						OFFSET 12.292140 4.520507 -1.904600
						CHANNELS 3 Zrotation Yrotation Xrotation
						JOINT Left_elbow
						{
							OFFSET 25.533188 -1.564902 -2.294648
							CHANNELS 3 Zrotation Yrotation Xrotation
							JOINT Left_wrist
							{
								OFFSET 26.570929 1.269810 -0.737473
								CHANNELS 3 Zrotation Yrotation Xrotation
								JOINT Left_palm
								{
									OFFSET 8.669054 -1.063602 -1.559429
									CHANNELS 3 Zrotation Yrotation Xrotation
									End Site
									{
										OFFSET 0.000000 0.000000 0.000000
									}
								}
							}
						}
					}
				}
				JOINT Right_collar
				{
					OFFSET -8.295364 11.247234 -2.370738
					CHANNELS 3 Zrotation Yrotation Xrotation
					JOINT Right_shoulder
					{
						OFFSET -11.322830 4.685326 -0.847207
						CHANNELS 3 Zrotation Yrotation Xrotation
						JOINT Right_elbow
						{
							OFFSET -26.012751 -1.436928 -3.126872
							CHANNELS 3 Zrotation Yrotation Xrotation
							JOINT Right_wrist
							{
								OFFSET -26.910841 0.679372 -0.602677
								CHANNELS 3 Zrotation Yrotation Xrotation
								JOINT Right_palm
								{
									OFFSET -8.875370 -0.865157 -1.010708
									CHANNELS 3 Zrotation Yrotation Xrotation
									End Site
									{
										OFFSET 0.000000 0.000000 0.000000
									}
								}
							}
						}
					}
				}
			}
		}
	}
}
MOTION
Frames: 11
Frame Time: 0.016667
-2.695960 31.847361 -3.789496 -1.631871 18.398862 -24.825182 7.098704 -2.298632 -67.376070 -12.859641 12.086900 92.338294 1.268326 3.190553 1.232994 0.000000 0.000000 0.000000 -13.817402 -1.039157 -59.828167 17.360801 -16.724098 91.343165 -1.238792 -0.447376 -5.369620 0.000000 0.000000 0.000000 -1.586416 -1.183149 42.408715 2.482999 -0.846549 -6.458156 4.359920 -2.037001 -1.773286 -10.473535 7.670610 -8.514148 0.000000 0.000000 0.000000 -20.981264 -5.053037 0.595225 -47.566160 1.217620 -5.691346 -13.044076 -22.496342 3.381666 0.000000 0.000000 0.000000 0.000000 0.000000 0.000000 17.939877 8.614915 2.745075 49.432970 1.038624 -3.932127 0.599553 25.284769 0.911235 0.000000 0.000000 0.000000 0.000000 0.000000 0.000000 
-2.743969 31.848135 -3.904318 -1.633297 18.531991 -24.827976 7.099294 -2.298289 -67.377037 -12.860642 12.088445 92.339495 1.269828 3.193503 1.232646 0.000000 0.000000 0.000000 -13.819864 -1.040492 -59.827881 17.363126 -16.726442 91.341172 -1.239541 -0.450185 -5.368568 0.000000 0.000000 0.000000 -1.585308 -1.183625 42.409872 2.483081 -0.846509 -6.459562 4.359345 -2.038536 -1.771119 -10.473520 7.670570 -8.514641 0.000000 0.000000 0.000000 -20.981760 -5.055812 0.596747 -47.566401 1.217730 -5.691420 -13.044036 -22.499512 3.382157 0.000000 0.000000 0.000000 0.000000 0.000000 0.000000 17.940075 8.615673 2.745478 49.432783 1.038300 -3.932239 0.596243 25.289093 0.910725 0.000000 0.000000 0.000000 0.000000 0.000000 0.000000 
-2.792277 31.848871 -4.019006 -1.633701 18.663599 -24.828542 7.102279 -2.296429 -67.378950 -12.863621 12.092262 92.339338 1.269728 3.193141 1.232249 0.000000 0.000000 0.000000 -13.822346 -1.041916 -59.830484 17.364414 -16.728047 91.341135 -1.239100 -0.449514 -5.367477 0.000000 0.000000 0.000000 -1.584221 -1.184027 42.408898 2.482463 -0.846228 -6.460048 4.358274 -2.039107 -1.768199 -10.474517 7.671106 -8.516787 0.000000 0.000000 0.000000 -20.981140 -5.058228 0.598134 -47.566471 1.216977 -5.691145 -13.044778 -22.502297 3.382742 0.000000 0.000000 0.000000 0.000000 0.000000 0.000000 17.940418 8.616297 2.745807 49.432498 1.039068 -3.931911 0.594658 25.291635 0.910499 0.000000 0.000000 0.000000 0.000000 0.000000 0.000000 
-2.840816 31.849672 -4.133547 -1.634607 18.795450 -24.830336 7.104865 -2.294805 -67.380316 -12.866630 12.094914 92.333426 1.269954 3.194894 1.235541 0.000000 0.000000 0.000000 -13.823647 -1.042645 -59.831201 17.365465 -16.729717 91.342357 -1.240562 -0.453889 -5.367357 0.000000 0.000000 0.000000 -1.582718 -1.184681 42.410729 2.479288 -0.844921 -6.459966 4.359387 -2.041994 -1.768825 -10.475216 7.671480 -8.518330 0.000000 0.000000 0.000000 -20.978903 -5.061814 0.600267 -47.570772 1.219912 -5.692822 -13.044451 -22.506276 3.383303 0.000000 0.000000 0.000000 0.000000 0.000000 0.000000 17.939064 8.616762 2.746073 49.435693 1.038956 -3.932233 0.590101 25.297984 0.909811 0.000000 0.000000 0.000000 0.000000 0.000000 0.000000 
-2.889694 31.849649 -4.247975 -1.635620 18.927157 -24.832725 7.106490 -2.293987 -67.386049 -12.867509 12.095805 92.332259 1.265956 3.191336 1.247444 0.000000 0.000000 0.000000 -13.825565 -1.043752 -59.833434 17.366770 -16.731489 91.342822 -1.240379 -0.454868 -5.364709 0.000000 0.000000 0.000000 -1.581351 -1.185291 42.412851 2.477999 -0.844364 -6.460430 4.358696 -2.043186 -1.770654 -10.475465 7.671488 -8.520933 0.000000 0.000000 0.000000 -20.977022 -5.063992 0.601592 -47.572348 1.223173 -5.694260 -13.047652 -22.509315 3.384416 0.000000 0.000000 0.000000 0.000000 0.000000 0.000000 17.938812 8.616746 2.746067 49.436392 1.036672 -3.933197 0.589312 25.301054 0.909766 0.000000 0.000000 0.000000 0.000000 0.000000 0.000000 
-2.938873 31.849169 -4.362293 -1.636944 19.060190 -24.842301 7.112635 -2.289963 -67.385350 -12.870780 12.099211 92.328334 1.260551 3.188846 1.269457 0.000000 0.000000 0.000000 -13.832558 -1.047420 -59.828109 17.372565 -16.735886 91.332831 -1.241147 -0.461759 -5.356641 0.000000 0.000000 0.000000 -1.580047 -1.186114 42.422635 2.477413 -0.844067 -6.461475 4.358372 -2.044933 -1.770647 -10.475107 7.672108 -8.506763 0.000000 0.000000 0.000000 -20.977241 -5.068877 0.604310 -47.575010 1.225095 -5.695338 -13.033918 -22.522667 3.383786 0.000000 0.000000 0.000000 0.000000 0.000000 0.000000 17.938892 8.623061 2.749443 49.440545 1.037680 -3.933159 0.566747 25.310607 0.905528 0.000000 0.000000 0.000000 0.000000 0.000000 0.000000 
-2.988130 31.849123 -4.476468 -1.638538 19.191299 -24.851784 7.124418 -2.282426 -67.388281 -12.876407 12.106106 92.326537 1.250814 3.176835 1.289852 0.000000 0.000000 0.000000 -13.837659 -1.050197 -59.827911 17.377871 -16.740026 91.324081 -1.239878 -0.464645 -5.345093 0.000000 0.000000 0.000000 -1.580215 -1.186191 42.427274 2.475881 -0.843860 -6.453326 4.359407 -2.043940 -1.773886 -10.475952 7.673110 -8.499561 0.000000 0.000000 0.000000 -20.972992 -5.075417 0.608208 -47.583303 1.219217 -5.694226 -13.016032 -22.530106 3.381399 0.000000 0.000000 0.000000 0.000000 0.000000 0.000000 17.934892 8.628127 2.752201 49.446210 1.037843 -3.933587 0.552048 25.317822 0.902802 0.000000 0.000000 0.000000 0.000000 0.000000 0.000000 
-3.037532 31.849791 -4.590477 -1.637542 19.323037 -24.869011 7.140027 -2.272118 -67.384325 -12.879550 12.107309 92.312884 1.237427 3.169206 1.340545 0.000000 0.000000 0.000000 -13.842855 -1.052567 -59.810966 17.396759 -16.759817 91.310537 -1.245866 -0.497809 -5.317943 0.000000 0.000000 0.000000 -1.583651 -1.185612 42.452627 2.480988 -0.845655 -6.459359 4.363352 -2.045032 -1.774812 -10.480622 7.677560 -8.477671 0.000000 0.000000 0.000000 -20.985273 -5.079380 0.609720 -47.583868 1.213922 -5.692306 -12.977521 -22.544792 3.376043 0.000000 0.000000 0.000000 0.000000 0.000000 0.000000 17.937028 8.646975 2.762254 49.446743 1.049605 -3.928982 0.509702 25.322599 0.894343 0.000000 0.000000 0.000000 0.000000 0.000000 0.000000 
-3.087458 31.851412 -4.704658 -1.638777 19.450783 -24.882250 7.155602 -2.262247 -67.390481 -12.879348 12.105461 92.305299 1.214455 3.141149 1.389136 0.000000 0.000000 0.000000 -13.843031 -1.052727 -59.813309 17.406586 -16.770094 91.303439 -1.244245 -0.509695 -5.288813 0.000000 0.000000 0.000000 -1.587047 -1.184865 42.472071 2.478653 -0.844396 -6.464983 4.373692 -2.045378 -1.773295 -10.496635 7.687357 -8.492557 0.000000 0.000000 0.000000 -20.991076 -5.079972 0.609719 -47.586057 1.205085 -5.689267 -12.944789 -22.540994 3.368938 0.000000 0.000000 0.000000 0.000000 0.000000 0.000000 17.931589 8.659430 2.768978 49.446481 1.051119 -3.928361 0.492269 25.324236 0.890848 0.000000 0.000000 0.000000 0.000000 0.000000 0.000000 
-3.137459 31.851637 -4.818789 -1.637558 19.576275 -24.907731 7.167016 -2.254384 -67.379566 -12.874248 12.098552 92.303763 1.197064 3.121640 1.430231 0.000000 0.000000 0.000000 -13.849920 -1.055988 -59.795283 17.419243 -16.783232 91.293964 -1.243143 -0.524182 -5.257759 0.000000 0.000000 0.000000 -1.590830 -1.184006 42.492949 2.475612 -0.843515 -6.457814 4.382685 -2.045501 -1.778024 -10.503438 7.695012 -8.441625 0.000000 0.000000 0.000000 -21.002097 -5.086256 0.612602 -47.586667 1.191076 -5.684069 -12.886315 -22.552902 3.359164 0.000000 0.000000 0.000000 0.000000 0.000000 0.000000 17.930838 8.684095 2.782176 49.443470 1.062301 -3.923678 0.443492 25.332168 0.881188 0.000000 0.000000 0.000000 0.000000 0.000000 0.000000 
-3.187304 31.847483 -4.932427 -1.634826 19.694539 -24.933829 7.182169 -2.244590 -67.380894 -12.867164 12.092485 92.318506 1.178260 3.095797 1.462450 0.000000 0.000000 0.000000 -13.843850 -1.052440 -59.786503 17.413710 -16.778691 91.302277 -1.240282 -0.521097 -5.248448 0.000000 0.000000 0.000000 -1.596742 -1.182219 42.511326 2.472281 -0.843364 -6.434356 4.395428 -2.042205 -1.790969 -10.521048 7.707194 -8.435060 0.000000 0.000000 0.000000 -21.003481 -5.087732 0.613349 -47.593180 1.169142 -5.676666 -12.822504 -22.543959 3.345081 0.000000 0.000000 0.000000 0.000000 0.000000 0.000000 17.912189 8.706557 2.794399 49.448062 1.068668 -3.921558 0.406710 25.335338 0.873797 0.000000 0.000000 0.000000 0.000000 0.000000 0.000000 
